<?xml version="1.0" encoding="UTF-8"?>
<svg width="168px" height="80px" viewBox="0 0 168 80" version="1.1" xmlns="http://www.w3.org/2000/svg" xmlns:xlink="http://www.w3.org/1999/xlink">
    <title>Axelerant-Logo-RGB</title>
    <g id="Page-1" stroke="none" stroke-width="1" fill="none" fill-rule="evenodd">
        <g id="Homepage-Final-V1.1" transform="translate(-235.000000, -40.000000)" fill-rule="nonzero">
            <g id="Axelerant-Logo-RGB" transform="translate(235.000000, 40.000000)">
                <g id="XMLID_258_" transform="translate(43.522519, 37.704268)">
                    <g id="XMLID_326_" transform="translate(0.000000, 5.357249)" fill="#010101">
                        <path d="M14.3589584,14.389255 C14.2714675,13.6172526 14.2275148,12.1006498 14.2275148,9.83870217 L14.2275148,6.12434715 C14.2275148,4.83453531 14.1217455,3.78124072 13.9109836,2.96248038 C13.6998246,2.14409977 13.1332596,1.44549791 12.2116234,0.867076872 C11.2900021,0.289008251 9.84576851,0 7.87847562,0 C5.77782088,0 4.1177326,0.399564474 2.89163922,1.19126774 L4.62755641,2.91574726 C5.3224528,2.47637649 6.26700336,2.25656453 7.46160273,2.25656453 C8.39801065,2.25656453 9.14501741,2.36858256 9.70147404,2.59424671 C10.2571689,2.81875431 10.6611934,3.11550344 10.9139847,3.48408705 C11.1659693,3.85232321 11.3180217,4.2078424 11.3697499,4.55095237 C11.4210485,4.89403007 11.4471174,5.47943999 11.4471174,6.30827661 C10.8186884,6.53316394 10.0203531,6.72284134 9.05284579,6.87584206 L6.45717134,7.25995706 C4.07846312,7.54665471 2.40751966,8.12776111 1.444281,9.00255652 C0.481819146,9.87734944 0,10.9905433 0,12.3413912 C0,13.7532725 0.499730443,14.8889048 1.4983396,15.748618 C2.4973434,16.6083064 3.8622587,17.0376009 5.59233867,17.0376009 C7.75482748,17.0376009 9.76835604,16.2393183 11.6326046,14.6438872 C11.7453876,15.4723416 11.9359352,16.1427075 12.2038654,16.6542851 L15.1234643,16.6542851 C14.7011463,15.917093 14.4464642,15.1628333 14.3589584,14.389255 M11.4471199,9.48556803 C11.4471199,11.4411171 10.9240931,12.8244002 9.87920077,13.6377327 C8.83354667,14.4514922 7.62609643,14.8579934 6.25651535,14.8579934 C5.19567749,14.8579934 4.38177624,14.6149439 3.81557842,14.1292173 C3.24901344,13.6431382 2.96591453,13.0264719 2.96591453,12.2792011 C2.96591453,10.7958352 4.01663155,9.9125271 6.11769593,9.63125475 C8.21835067,9.35031001 9.99509343,8.96933703 11.4471199,8.48788164 L11.4471199,9.48556803 L11.4471199,9.48556803 Z" id="XMLID_327_"></path>
                    </g>
                    <g id="XMLID_312_" transform="translate(84.040462, 5.357249)" fill="#010101">
                        <path d="M14.3593405,14.389255 C14.2714375,13.6172526 14.2278819,12.1006498 14.2278819,9.83870217 L14.2278819,6.12434715 C14.2278819,4.83453531 14.1217305,3.78124072 13.9113358,2.96248038 C13.69943,2.14409977 13.1336118,1.44549791 12.2116109,0.867076872 C11.2895924,0.289008251 9.84573854,0 7.87844815,0 C5.7777934,0 4.11734045,0.399564474 2.89161175,1.19126774 L4.6278961,2.91574726 C5.32280998,2.47637649 6.26700836,2.25656453 7.46159024,2.25656453 C8.39798318,2.25656453 9.14536959,2.36858256 9.70147653,2.59424671 C10.2571714,2.81875431 10.6611959,3.11550344 10.9143544,3.48408705 C11.1655621,3.85232321 11.3183764,4.2078424 11.3700871,4.55095237 C11.421036,4.89403007 11.4467078,5.47943999 11.4467078,6.30827661 C10.8186584,6.53316394 10.0203256,6.72284134 9.0528308,6.87584206 L6.45752102,7.25995706 C4.078036,7.54665471 2.40785435,8.12776111 1.44464567,9.00255652 C0.481816648,9.87734944 0,10.9905433 0,12.3413912 C0,13.7532725 0.499288343,14.8889048 1.49868928,15.748618 C2.49729844,16.6083064 3.86222872,17.0376009 5.59230619,17.0376009 C7.754795,17.0376009 9.76835354,16.2393183 11.6329543,14.6438872 C11.7453402,15.4723416 11.9359028,16.1427075 12.2038179,16.6542851 L15.1234343,16.6542851 C14.7011164,15.917093 14.4460221,15.1628333 14.3593405,14.389255 M11.4467053,9.48556803 C11.4467053,11.4411171 10.9240606,12.8244002 9.87918328,13.6377327 C8.83313204,14.4514922 7.6264611,14.8579934 6.25610322,14.8579934 C5.19604216,14.8579934 4.38174627,14.6149439 3.8151663,14.1292173 C3.2493931,13.6431382 2.96588206,13.0264719 2.96588206,12.2792011 C2.96588206,10.7958352 4.01659908,9.9125271 6.1172813,9.63125475 C8.21793605,9.35031001 9.9946788,8.96933703 11.4467053,8.48788164 L11.4467053,9.48556803 Z" id="XMLID_323_"></path>
                    </g>
                    <g id="XMLID_308_" transform="translate(33.732513, 5.004182)" fill="#010101">
                        <path d="M15.4368583,9.40014792 L2.90094081,9.40014792 C3.01683347,11.2393854 3.54489079,12.6435234 4.48635914,13.6149246 C5.42664106,14.5863307 6.60062657,15.0716553 8.00947712,15.0716553 C9.09248243,15.0716553 10.0016475,14.7868687 10.7377841,14.2180698 C11.4739032,13.6496754 12.181638,12.7146531 12.4246881,11.3699652 L15.3388769,11.3699652 C15.1141203,13.6110579 14.0015542,15.0670044 12.7404425,15.9958965 C11.4789636,16.92632 9.90249469,17.39074 8.00947712,17.39074 C5.4970099,17.39074 3.53401812,16.6252971 2.12047182,15.0955753 C0.706940501,13.5658461 0,11.4739122 0,8.8205902 C0,6.19966118 0.685582322,4.07334879 2.0574813,2.44431851 C3.42941025,0.81489362 5.36128518,0 7.85239422,0 C9.07149142,0 10.2462562,0.2665972 11.3766712,0.799439178 C12.5067364,1.33228116 13.4652968,2.23795567 14.2535387,3.5176937 C15.0417707,4.79705698 15.4368583,6.75798425 15.4368583,9.40014792 M12.5195923,7.08104341 C12.4033174,5.38979826 11.8748205,4.17074131 10.9345536,3.42347049 C9.99427167,2.6773041 8.96570711,2.30329269 7.85239671,2.30329269 C6.51702719,2.30329269 5.4188531,2.74685529 4.55673297,3.63519412 C3.69424818,4.52234911 3.19530952,5.67185487 3.05843833,7.08104341 L12.5195923,7.08104341 L12.5195923,7.08104341 Z" id="XMLID_309_"></path>
                    </g>
                    <g id="XMLID_304_" transform="translate(57.824077, 5.004182)" fill="#010101">
                        <path d="M15.4368733,9.40014792 L2.90135293,9.40014792 C3.0164688,11.2393854 3.54530292,12.6435234 4.48635914,13.6149246 C5.42664106,14.5863307 6.60140336,15.0716553 8.00950959,15.0716553 C9.0925149,15.0716553 10.001695,14.7868687 10.7378166,14.2180698 C11.4739207,13.6496754 12.1816704,12.7146531 12.4247206,11.3699652 L15.3396712,11.3699652 C15.1141203,13.6110579 14.0015567,15.0670044 12.7404899,15.9958965 C11.4789811,16.92632 9.90251218,17.39074 8.00950959,17.39074 C5.49704237,17.39074 3.53402062,16.6252971 2.12051928,15.0955753 C0.706972972,13.5658461 0,11.4739122 0,8.8205902 C0,6.19966118 0.685582322,4.07334879 2.05827308,2.44431851 C3.4290281,0.81489362 5.36133014,0 7.85239422,0 C9.07150641,0 10.2462712,0.2665972 11.3767186,0.799439178 C12.5067689,1.33228116 13.4653143,2.23795567 14.254333,3.5176937 C15.0418007,4.79705698 15.4368733,6.75798425 15.4368733,9.40014792 M12.5195923,7.08104341 C12.4033349,5.38979826 11.8756423,4.17074131 10.9353778,3.42347049 C9.99427417,2.6773041 8.96575457,2.30329269 7.85239671,2.30329269 C6.51705716,2.30329269 5.41888307,2.74685529 4.55677793,3.63519412 C3.69503996,4.52234911 3.19494235,5.67185487 3.05843833,7.08104341 L12.5195923,7.08104341 L12.5195923,7.08104341 Z" id="XMLID_305_"></path>
                    </g>
                    <g id="XMLID_302_" transform="translate(101.659017, 5.357127)" fill="#010101">
                        <path d="M13.3619028,16.65429 L10.5663067,16.65429 L10.5663067,6.75379987 C10.5663067,5.0857277 10.265339,3.93968908 9.66218708,3.31528443 C9.05985694,2.69123221 8.22296899,2.37903361 7.15203776,2.37903361 C6.32804564,2.37903361 5.54722697,2.57878978 4.81144256,2.97755758 C4.07535343,3.37672248 3.55269373,3.93969156 3.2435259,4.66610496 C2.93478519,5.39249851 2.77965053,6.42109131 2.77965053,7.75143662 L2.77965053,16.65429 L0,16.65429 L0,0.368231193 L2.50237385,0.368231193 L2.50237385,2.67076196 L2.56384075,2.67076196 C3.15098711,1.78051459 3.87503214,1.11281914 4.73445471,0.667320695 C5.59424194,0.222571769 6.59016853,0 7.72332847,0 C8.5885433,0 9.44366475,0.153425114 10.2882682,0.460203368 C11.1328717,0.767378717 11.7943833,1.22797918 12.2726482,1.84197994 C12.7513726,2.4555563 13.0534968,3.11086487 13.1763706,3.80677889 C13.3004659,4.50229085 13.3619028,5.44389253 13.3619028,6.63091384 L13.3619028,16.65429 L13.3619028,16.65429 Z" id="XMLID_303_"></path>
                    </g>
                    <g id="XMLID_300_" transform="translate(74.890199, 5.357122)" fill="#010101">
                        <path d="M7.7232985,0 C6.59015354,0 5.59424194,0.222571769 4.73445471,0.667673116 C3.87504963,1.11279184 3.15098711,1.78046247 2.56379579,2.67075699 L2.50234388,2.67075699 L2.50234388,0.368233675 L0,0.368233675 L0,16.6542875 L2.77963554,16.6542875 L2.77963554,7.75138699 C2.77963554,6.42104663 2.93476771,5.39249851 3.24354089,4.66606277 C3.55267874,3.93964193 4.07532346,3.37667533 4.81145755,2.97753277 C5.54721199,2.57879226 6.32804564,2.37898645 7.15205275,2.37898645 C7.73105898,2.37898645 8.23894454,2.47326426 8.68107959,2.6560347 L8.68107959,0.0706853988 C8.36339197,0.0281937478 8.04451293,0 7.7232985,0" id="XMLID_301_"></path>
                    </g>
                    <g id="XMLID_263_" transform="translate(116.634173, 0.000099)" fill="#010101">
                        <path d="M6.34942381,19.6476768 C5.65919069,19.6476768 5.22909975,19.4765388 5.05994027,19.1330292 C4.88962434,18.7902766 4.80522569,18.2099198 4.80522569,17.3911644 L4.80522569,7.85885828 L7.58524338,7.85885828 L7.58524338,5.72520459 L4.80522569,5.72520459 L4.80522569,0 L2.02404904,1.67310038 L2.02404904,5.72520707 L0,5.72520707 L0,7.85886076 L2.02404904,7.85886076 L2.02404904,17.2374142 C2.02404904,18.4039305 2.08548597,19.3150253 2.20951877,19.9699591 C2.33321687,20.624893 2.67269228,21.1646642 3.22953106,21.589335 C3.78444908,22.0135765 4.67106705,22.2257469 5.88627777,22.2257469 C6.06089481,22.2257469 6.25221924,22.2152983 6.45211091,22.1998438 L6.45211091,19.6423061 C6.41784441,19.6430804 6.38287105,19.6476768 6.34942381,19.6476768" id="XMLID_264_"></path>
                    </g>
                    <g id="XMLID_261_" transform="translate(17.293207, 5.725358)" fill="#FC4C02">
                        <path d="M15.3863215,16.2860539 L11.9568838,16.2860539 L7.69333061,9.83950132 L3.38353675,16.2860539 L0,16.2860539 L6.00954876,7.79742023 L0.479074129,0 L3.92406279,0 C6.16897954,3.36705074 7.3943111,5.24491069 7.60077433,5.63324234 L11.6170237,0 L14.9383443,0 L9.26905021,7.64442199 L15.3863215,16.2860539 Z" id="XMLID_262_"></path>
                    </g>
                    <g id="XMLID_259_" transform="translate(51.880052, 0.000000)" fill="#010101">
                        <path d="M0,17.2373819 C0,18.404273 0.0622162191,19.3149955 0.185487208,19.9699269 C0.309140351,20.6252354 0.649392559,21.1646369 1.20546953,21.58968 C1.76117934,22.0135467 2.64700552,22.2256674 3.86224621,22.2256674 C4.03761007,22.2256674 4.2289345,22.2152635 4.42801941,22.2001888 L4.42801941,19.6426511 C4.39460214,19.6434304 4.3595988,19.6477066 4.32538975,19.6477066 C3.63591844,19.6477066 3.20581252,19.4765164 3.03666803,19.1330044 C2.8655728,18.7906762 2.78119163,18.2103218 2.78119163,17.3911346 L2.78119163,0 L0,0 L0,17.2373819 L0,17.2373819 Z" id="XMLID_260_"></path>
                    </g>
                </g>
                <g id="XMLID_251_" fill="#FC4C02">
                    <g id="XMLID_256_" transform="translate(0.000000, 30.190756)">
                        <polygon id="XMLID_257_" points="0 0 9.5873198 0 24.1984151 21.0572624 9.56901886 44.2918938 0 44.2918938 14.4305936 20.8008805"></polygon>
                    </g>
                    <g id="XMLID_254_" transform="translate(24.812302, 58.125404)">
                        <polygon id="XMLID_255_" points="4.23533371 0 0 7.78313225 9.78911726 21.8745957 19.3363883 21.8745957"></polygon>
                    </g>
                    <g id="XMLID_252_" transform="translate(17.764018, 0.000000)">
                        <path d="M2.97253406,20.5237231 C1.54464073,22.5561374 -1.38857338,25.2233205 0.763839547,28.5637411 C2.91623499,31.9041343 3.97928335,33.5563549 5.25644803,35.3515074 C6.53852076,37.1534354 11.3090478,44.0596949 11.3090478,44.0596949 C11.3090478,44.0596949 23.1425208,24.4057192 23.688352,23.5018167 C24.2341833,22.5979068 24.4160862,20.7900721 22.2328661,18.4398477 C20.0495836,16.0896928 14.0456473,10.4854434 12.2261407,7.59290636 C10.4066966,4.7003693 10.4066966,0 10.4066966,0 C10.4066966,0 8.687824,3.48676 8.58723749,5.60427426 C8.45737996,8.3379311 10.7704725,11.7509654 12.4080012,14.6434727 C14.0455874,17.5359775 14.5914211,20.2477222 14.5914211,21.8747694 C14.5914211,23.5018167 13.1357979,25.3096515 13.1357979,25.3096515 C13.1357979,25.3096515 12.9465765,21.5949812 11.3090503,19.9679613 C9.67158409,18.3409239 8.33453858,16.9967547 6.99587454,13.8733119 C5.83030392,16.787637 6.6440503,19.6796578 7.37190688,22.029845 C8.09964107,24.3800073 7.10868749,26.4642698 6.40401744,28.4082486 C5.63949652,27.6343376 6.99587454,26.0906456 4.92775287,24.259886 C3.38923961,22.9534583 2.89630801,21.6228573 2.97253406,20.5237231 Z" id="XMLID_253_"></path>
                    </g>
                </g>
            </g>
        </g>
    </g>
</svg>