<?xml version="1.0" encoding="UTF-8"?>
<svg width="50px" height="80px" viewBox="0 0 50 80" version="1.1" xmlns="http://www.w3.org/2000/svg" xmlns:xlink="http://www.w3.org/1999/xlink">
    <title>Axelerant-Logo-RGB</title>
    <g id="Page-1" stroke="none" stroke-width="1" fill="none" fill-rule="evenodd">
        <g id="Homepage-Final-V1.1" transform="translate(-235.000000, -40.000000)" fill-rule="nonzero">
            <g id="Axelerant-Logo-RGB" transform="translate(235.000000, 40.000000)">
                <g id="XMLID_251_" fill="#FC4C02">
                    <g id="XMLID_256_" transform="translate(0.000000, 30.190756)">
                        <polygon id="XMLID_257_" points="0 0 9.5873198 0 24.1984151 21.0572624 9.56901886 44.2918938 0 44.2918938 14.4305936 20.8008805"></polygon>
                    </g>
                    <g id="XMLID_254_" transform="translate(24.812302, 58.125404)">
                        <polygon id="XMLID_255_" points="4.23533371 0 0 7.78313225 9.78911726 21.8745957 19.3363883 21.8745957"></polygon>
                    </g>
                    <g id="XMLID_252_" transform="translate(17.764018, 0.000000)">
                        <path d="M2.97253406,20.5237231 C1.54464073,22.5561374 -1.38857338,25.2233205 0.763839547,28.5637411 C2.91623499,31.9041343 3.97928335,33.5563549 5.25644803,35.3515074 C6.53852076,37.1534354 11.3090478,44.0596949 11.3090478,44.0596949 C11.3090478,44.0596949 23.1425208,24.4057192 23.688352,23.5018167 C24.2341833,22.5979068 24.4160862,20.7900721 22.2328661,18.4398477 C20.0495836,16.0896928 14.0456473,10.4854434 12.2261407,7.59290636 C10.4066966,4.7003693 10.4066966,0 10.4066966,0 C10.4066966,0 8.687824,3.48676 8.58723749,5.60427426 C8.45737996,8.3379311 10.7704725,11.7509654 12.4080012,14.6434727 C14.0455874,17.5359775 14.5914211,20.2477222 14.5914211,21.8747694 C14.5914211,23.5018167 13.1357979,25.3096515 13.1357979,25.3096515 C13.1357979,25.3096515 12.9465765,21.5949812 11.3090503,19.9679613 C9.67158409,18.3409239 8.33453858,16.9967547 6.99587454,13.8733119 C5.83030392,16.787637 6.6440503,19.6796578 7.37190688,22.029845 C8.09964107,24.3800073 7.10868749,26.4642698 6.40401744,28.4082486 C5.63949652,27.6343376 6.99587454,26.0906456 4.92775287,24.259886 C3.38923961,22.9534583 2.89630801,21.6228573 2.97253406,20.5237231 Z" id="XMLID_253_"></path>
                    </g>
                </g>
            </g>
        </g>
    </g>
</svg>